<svg width="983" height="1524" viewBox="0 0 983 1524" fill="none" xmlns="http://www.w3.org/2000/svg">
<path d="M494.679 0.00976562C764.664 1.71975 983 221.113 983 491.5V1031.85L982.99 1035.03C981.28 1305.02 761.888 1523.35 491.5 1523.35L488.321 1523.34C218.336 1521.63 0 1302.24 0 1031.85V491.5C9.09619e-05 220.052 220.052 0 491.5 0L494.679 0.00976562ZM491.5 35.7451C239.794 35.7451 35.7452 239.794 35.7451 491.5V1031.85C35.7451 1283.56 239.794 1487.61 491.5 1487.61C743.206 1487.61 947.255 1283.56 947.255 1031.85V491.5C947.255 239.794 743.206 35.7452 491.5 35.7451ZM440.067 628.69C490.306 709.844 543.449 707.761 543.449 707.761V1232.62C486.353 1232.62 440.067 1186.34 440.067 1129.24V628.69ZM543.449 529.844H760.698C743.247 588.486 689.336 628.69 628.152 628.69H222.814V529.844H440.067V291.326H543.449V529.844Z" fill="#1D2023"/>
</svg>
