<svg width="2622" height="1272" viewBox="0 0 2622 1272" fill="none" xmlns="http://www.w3.org/2000/svg">
<path d="M1531.25 298.044C1748.77 298.044 1875.65 487.077 1875.65 782.277C1875.65 1072.3 1744.88 1271.69 1528.66 1271.69C1312.44 1271.69 1185.55 1082.66 1185.55 787.456C1185.55 497.434 1315.03 298.044 1531.25 298.044ZM2277.6 298.044C2495.12 298.044 2622 487.077 2622 782.277C2622 1072.3 2491.23 1271.69 2275.01 1271.69C2058.79 1271.69 1931.9 1082.66 1931.9 787.456C1931.9 497.434 2061.38 298.044 2277.6 298.044ZM1138.99 290.275C1097.56 411.981 1036.71 450.823 913.708 450.823C863.213 450.823 794.592 444.349 711.729 427.518L689.718 641.149L766.107 650.213C1010.81 679.992 1144.17 799.108 1144.17 972.604C1144.17 1155.16 1004.34 1271.69 815.308 1271.69C741.508 1271.69 653.465 1253.56 613.328 1232.85L628.865 1069.71H636.634C679.36 1179.76 722.087 1253.56 828.255 1253.56C943.487 1253.56 1040.59 1168.11 1040.59 1038.63C1040.59 878.087 891.698 800.402 709.14 779.687L652.171 773.213L702.666 298.044C814.013 321.349 903.35 326.528 960.318 326.528C1060.01 326.528 1106.62 309.697 1131.22 290.275H1138.99ZM225.928 628.1C278.173 712.494 333.438 710.327 333.438 710.327V1256.15C274.062 1256.15 225.928 1208.02 225.928 1148.64V628.1ZM1528.66 316.171C1387.53 316.171 1330.57 515.561 1330.57 784.866C1330.57 1046.4 1388.83 1253.56 1532.54 1253.56C1672.38 1253.56 1730.64 1054.17 1730.64 784.866C1730.64 523.329 1671.08 316.171 1528.66 316.171ZM2275.01 316.171C2133.88 316.171 2076.91 515.561 2076.91 784.866C2076.91 1046.4 2135.18 1253.56 2278.89 1253.56C2418.73 1253.56 2476.99 1054.17 2476.99 784.866C2476.99 523.329 2417.43 316.171 2275.01 316.171ZM333.438 525.306H559.363C541.215 586.29 485.151 628.099 421.524 628.1H0V525.306H225.928V277.263H333.438V525.306ZM1092.23 42.3262C1092.23 48.4167 1091.92 54.0064 1091.31 59.0947C1090.69 64.183 1089.46 68.6159 1087.61 72.3936C1085.76 76.0942 1082.98 78.9476 1079.28 80.9521C1075.66 82.9566 1070.8 83.958 1064.71 83.958C1060.85 83.958 1057.46 83.5346 1054.53 82.6865C1051.6 81.8385 1048.9 80.5662 1046.44 78.8701L1049.1 70.4277C1050.56 71.43 1052.57 72.3942 1055.11 73.3193C1057.73 74.1674 1060.81 74.5908 1064.36 74.5908C1067.98 74.5908 1070.95 74.0128 1073.27 72.8564C1075.58 71.6229 1077.35 69.8109 1078.59 67.4209C1079.82 64.9539 1080.67 61.8312 1081.13 58.0537C1081.59 54.2762 1081.82 49.8048 1081.82 44.6396V0.578125H1092.23V42.3262ZM1858.94 0C1862.64 3.55299e-06 1866.07 0.386302 1869.23 1.15723C1872.47 1.92817 1875.47 3.00685 1878.25 4.39453C1881.03 5.78225 1883.57 7.43981 1885.88 9.36719L1881.03 17.8096C1880.1 16.7303 1878.87 15.6897 1877.33 14.6875C1875.78 13.6853 1874.05 12.7983 1872.12 12.0273C1870.19 11.1793 1868.07 10.5241 1865.76 10.0615C1863.52 9.52185 1861.17 9.25195 1858.71 9.25195C1852.38 9.25197 1847.72 10.4469 1844.71 12.8369C1841.71 15.2269 1840.2 18.5039 1840.2 22.667C1840.2 25.5965 1840.97 27.9094 1842.52 29.6055C1844.06 31.3016 1846.41 32.6892 1849.57 33.7686C1852.81 34.8479 1856.89 35.9657 1861.83 37.1221C1867.53 38.3556 1872.47 39.8596 1876.63 41.6328C1880.79 43.406 1883.99 45.796 1886.23 48.8027C1888.47 51.7324 1889.58 55.6645 1889.58 60.5986C1889.58 64.5304 1888.81 67.9611 1887.27 70.8906C1885.81 73.7432 1883.72 76.1331 1881.03 78.0605C1878.33 79.9108 1875.17 81.2985 1871.54 82.2236C1867.92 83.0717 1863.99 83.4961 1859.75 83.4961C1855.58 83.4961 1851.5 83.0717 1847.49 82.2236C1843.56 81.2985 1839.82 79.988 1836.27 78.292C1832.73 76.5959 1829.41 74.4758 1826.33 71.9316L1831.3 63.1426C1832.53 64.4531 1834.11 65.7637 1836.04 67.0742C1838.04 68.3077 1840.28 69.4646 1842.75 70.5439C1845.29 71.6233 1848.03 72.5093 1850.96 73.2031C1853.89 73.8199 1856.89 74.1289 1859.98 74.1289C1865.84 74.1289 1870.39 73.0874 1873.62 71.0059C1876.86 68.8472 1878.48 65.7248 1878.48 61.6387C1878.48 58.555 1877.56 56.0876 1875.71 54.2373C1873.93 52.3871 1871.27 50.8458 1867.73 49.6123C1864.18 48.3788 1859.86 47.1447 1854.77 45.9111C1849.22 44.5234 1844.56 43.0204 1840.78 41.4014C1837 39.7053 1834.15 37.5079 1832.22 34.8096C1830.37 32.1113 1829.45 28.6034 1829.45 24.2861C1829.45 19.0436 1830.72 14.6099 1833.26 10.9863C1835.81 7.36296 1839.32 4.62565 1843.79 2.77539C1848.26 0.925141 1853.31 0 1858.94 0ZM699.668 0C707.609 0 714.163 1.65751 719.328 4.97266C724.493 8.28772 728.387 12.6054 731.008 17.9248L723.028 23.4766C720.638 18.6966 717.361 15.1498 713.198 12.8369C709.035 10.5241 704.448 9.36719 699.437 9.36719C695.273 9.36724 691.496 10.2542 688.104 12.0273C684.711 13.8006 681.782 16.2297 679.314 19.3135C676.925 22.3201 675.074 25.7508 673.764 29.6055C672.53 33.4603 671.913 37.4696 671.913 41.6328C671.913 46.0272 672.607 50.1903 673.995 54.1221C675.46 57.9767 677.503 61.4074 680.124 64.4141C682.745 67.3437 685.791 69.6574 689.26 71.3535C692.729 73.0496 696.469 73.8974 700.478 73.8975C705.18 73.8975 709.652 72.7025 713.893 70.3125C717.661 68.1886 721.245 65.0588 724.647 60.9258V49.6123H706.954V41.748H733.437V82.6865H724.647V71.5303C717.521 79.3521 709.196 83.2646 699.668 83.2646C694.271 83.2646 689.221 82.1078 684.519 79.7949C679.893 77.405 675.845 74.2443 672.376 70.3125C668.907 66.3035 666.209 61.8316 664.281 56.8975C662.354 51.8862 661.39 46.721 661.39 41.4014C661.39 35.8505 662.354 30.608 664.281 25.6738C666.209 20.6626 668.868 16.2288 672.261 12.374C675.73 8.51936 679.778 5.51313 684.403 3.35449C689.106 1.11873 694.194 3.29721e-05 699.668 0ZM593.88 82.6865H583.473V0.578125H593.88V82.6865ZM837.617 0.578125C841.241 0.578141 844.556 1.34969 847.562 2.8916C850.569 4.35644 853.191 6.3611 855.427 8.90527C857.662 11.3722 859.397 14.1859 860.631 17.3467C861.864 20.4305 862.48 23.592 862.48 26.8301C862.48 30.6078 861.748 34.1928 860.283 37.585C858.895 40.9771 856.891 43.8679 854.27 46.2578C851.725 48.6478 848.719 50.3063 845.25 51.2314L865.141 82.6865H853.345L834.61 53.1973H812.869V82.6865H802.461V0.578125H837.617ZM986.362 9.83008H942.07V36.4287H980.58V45.1016H942.07V73.4346H987.403V82.6865H931.662V0.578125H986.362V9.83008ZM1229.59 82.6865H1218.49L1208.77 58.6318H1174.31L1164.71 82.6865H1153.61L1187.26 0.578125H1196.05L1229.59 82.6865ZM1413.4 0.578125C1417.25 0.578125 1420.57 1.61957 1423.34 3.70117C1426.2 5.70558 1428.36 8.3267 1429.82 11.5645C1431.36 14.7254 1432.13 18.0414 1432.13 21.5107C1432.13 25.5196 1431.09 29.2974 1429.01 32.8438C1427.01 36.3129 1424.12 38.8957 1420.34 40.5918C1425.04 41.9796 1428.74 44.5622 1431.44 48.3398C1434.21 52.0405 1435.6 56.4351 1435.6 61.5234C1435.6 65.7637 1434.52 69.4641 1432.36 72.625C1430.21 75.786 1427.28 78.2531 1423.58 80.0264C1419.95 81.7995 1415.94 82.6865 1411.55 82.6865H1372.58V0.578125H1413.4ZM1568.97 82.6865H1557.87L1548.15 58.6318H1513.69L1504.09 82.6865H1492.99L1526.64 0.578125H1535.43L1568.97 82.6865ZM1684.54 9.83008H1656.21V82.6865H1645.8V9.83008H1617.47V0.578125H1684.54V9.83008ZM1759.97 82.6865H1749.56V0.578125H1759.97V82.6865ZM2015.68 9.83008H1987.35V82.6865H1976.94V9.83008H1948.61V0.578125H2015.68V9.83008ZM2140.21 82.6865H2129.11L2119.4 58.6318H2084.94L2075.34 82.6865H2064.24L2097.89 0.578125H2106.68L2140.21 82.6865ZM1382.98 73.666H1411.55C1414.09 73.666 1416.37 73.0106 1418.37 71.7002C1420.45 70.3896 1422.07 68.6929 1423.23 66.6113C1424.46 64.4527 1425.08 62.1398 1425.08 59.6729C1425.08 57.1289 1424.5 54.7776 1423.34 52.6191C1422.27 50.4605 1420.76 48.7257 1418.83 47.415C1416.98 46.1045 1414.83 45.4493 1412.36 45.4492H1382.98V73.666ZM1176.39 50.5371H1206.46L1191.66 12.6055L1176.39 50.5371ZM1515.77 50.5371H1545.84L1531.04 12.6055L1515.77 50.5371ZM2087.02 50.5371H2117.09L2102.28 12.6055L2087.02 50.5371ZM812.869 43.9453H837.732C840.585 43.9453 843.052 43.1746 845.134 41.6328C847.292 40.0139 848.95 37.8935 850.106 35.2725C851.34 32.6512 851.957 29.8368 851.957 26.8301C851.957 23.7462 851.263 20.9319 849.875 18.3877C848.487 15.7666 846.676 13.6844 844.44 12.1426C842.205 10.6007 839.737 9.83012 837.039 9.83008H812.869V43.9453ZM1382.98 37.0068H1409.12C1411.59 37.0068 1413.75 36.3897 1415.6 35.1562C1417.52 33.9227 1419.03 32.2652 1420.11 30.1836C1421.26 28.102 1421.84 25.8274 1421.84 23.3604C1421.84 20.7392 1421.3 18.4263 1420.22 16.4219C1419.22 14.3404 1417.79 12.6827 1415.94 11.4492C1414.17 10.2157 1412.13 9.59863 1409.81 9.59863H1382.98V37.0068Z" fill="#1D2023"/>
</svg>
