<svg width="4035" height="1232" viewBox="0 0 4035 1232" fill="none" xmlns="http://www.w3.org/2000/svg">
<path d="M1163.93 600.804C1280.15 600.804 1339.99 677.904 1339.99 792.979V1084.12C1339.99 1131.3 1341.14 1169.27 1376.82 1169.27C1400.98 1169.27 1417.09 1152.01 1424 1142.81L1430.9 1147.41C1412.49 1183.08 1371.06 1231.41 1308.92 1231.41C1243.33 1231.41 1229.52 1176.18 1227.22 1133.6C1182.34 1191.14 1113.3 1231.41 1047.7 1231.41C968.302 1231.41 913.066 1181.93 913.065 1109.43C913.065 1025.43 976.357 967.892 1114.45 928.767L1221.47 898.848V817.145C1221.47 783.773 1221.47 660.643 1107.54 660.643C1031.59 660.643 975.206 713.577 940.684 780.32L933.779 776.868C956.794 700.919 1031.59 600.804 1163.93 600.804ZM1855.09 600.804C1901.12 600.804 1967.86 611.16 2012.74 633.024V759.606H2005.84C1973.61 674.451 1916.08 616.914 1841.28 616.914C1777.99 616.914 1735.41 657.19 1735.41 714.728C1735.41 779.169 1787.19 809.089 1838.98 836.707L1882.71 859.722C1960.96 901.149 2040.36 937.973 2040.36 1044.99C2040.36 1158.92 1950.6 1231.41 1819.42 1231.41C1760.73 1231.41 1692.83 1217.61 1650.25 1196.89L1641.05 1044.99H1647.95C1692.83 1143.96 1744.62 1215.3 1837.83 1215.3C1902.27 1215.3 1960.96 1181.93 1960.96 1108.28C1960.96 1041.54 1912.63 1017.37 1827.47 971.345L1782.59 947.179C1726.2 917.259 1656.01 876.983 1656.01 775.717C1656.01 666.396 1742.31 600.804 1855.09 600.804ZM2716.93 359.146C2680.1 467.316 2626.02 501.839 2516.7 501.839C2471.82 501.839 2410.83 496.085 2337.18 481.125L2317.62 670.999L2385.51 679.055C2603 705.522 2721.53 811.391 2721.53 965.591C2721.53 1127.85 2597.25 1231.41 2429.24 1231.41C2363.65 1231.41 2285.4 1215.3 2249.72 1196.89L2263.53 1051.9H2270.44C2308.41 1149.71 2346.39 1215.3 2440.75 1215.3C2543.16 1215.3 2629.47 1139.35 2629.47 1024.28C2629.47 881.587 2497.13 812.541 2334.88 794.129L2284.25 788.375L2329.12 366.051C2428.09 386.764 2507.49 391.367 2558.12 391.367C2646.73 391.367 2688.16 376.408 2710.02 359.146H2716.93ZM3065.56 366.051C3258.89 366.051 3371.66 534.06 3371.66 796.431C3371.66 1054.2 3255.43 1231.41 3063.26 1231.41C2871.08 1231.41 2758.31 1063.4 2758.31 801.033C2758.31 543.266 2873.38 366.051 3065.56 366.051ZM3728.9 366.051C3922.23 366.051 4035 534.06 4035 796.431C4035 1054.2 3918.78 1231.41 3726.6 1231.41C3534.43 1231.41 3421.65 1063.4 3421.65 801.033C3421.65 543.266 3536.73 366.051 3728.9 366.051ZM477.561 1009.32L703.107 379.859H902.188V386.764C823.937 393.668 814.73 444.302 819.333 529.457L849.253 1068.01C853.856 1153.16 858.459 1210.7 936.71 1210.7V1217.6H645.57V1210.7C723.821 1210.7 728.424 1153.16 723.821 1068.01L691.601 474.221L425.777 1217.6H416.571L146.146 474.221L118.527 998.963C111.623 1119.79 140.392 1210.7 218.643 1210.7V1217.6H0V1210.7C73.6478 1204.95 92.0597 1118.64 97.8135 998.963L123.13 513.347C127.733 430.493 86.3063 395.97 31.0703 386.764V379.859H248.562L477.561 1009.32ZM1581.74 1097.93C1581.74 1171.57 1585.19 1210.7 1632.37 1210.7V1217.6H1411.43V1210.7C1458.61 1210.7 1462.06 1171.57 1462.06 1097.93V768.812C1462.06 695.165 1442.5 674.452 1403.37 660.643V653.737L1577.14 603.104H1581.74V1097.93ZM3063.26 382.161C2937.83 382.161 2887.19 559.377 2887.19 798.732C2887.19 1031.18 2938.98 1215.3 3066.71 1215.3C3190.99 1215.3 3242.77 1038.09 3242.77 798.732C3242.77 566.281 3189.84 382.161 3063.26 382.161ZM3726.6 382.161C3601.17 382.161 3550.54 559.377 3550.54 798.732C3550.54 1031.18 3602.32 1215.3 3730.05 1215.3C3854.33 1215.3 3906.12 1038.09 3906.12 798.732C3906.12 566.281 3853.18 382.161 3726.6 382.161ZM1153.57 937.973C1056.91 971.344 1029.29 1005.87 1029.29 1073.76C1029.29 1134.75 1066.12 1172.73 1115.6 1172.73C1153.57 1172.73 1193.85 1148.56 1221.47 1124.39V914.958L1153.57 937.973ZM1511.54 362.599C1552.97 362.599 1586.34 395.97 1586.34 437.396C1586.34 479.974 1552.97 513.347 1511.54 513.347C1468.97 513.347 1435.6 479.974 1435.6 437.396C1435.6 395.97 1468.97 362.599 1511.54 362.599ZM1074.63 84.4229C1074.63 96.5711 1074.02 107.72 1072.79 117.869C1071.56 128.018 1069.1 136.861 1065.41 144.396C1061.72 151.777 1056.18 157.467 1048.8 161.465C1041.57 165.463 1031.88 167.462 1019.74 167.462C1012.05 167.462 1005.28 166.616 999.437 164.925C993.593 163.233 988.211 160.696 983.29 157.313L988.596 140.475C991.517 142.474 995.515 144.396 1000.59 146.241C1005.82 147.933 1011.97 148.778 1019.04 148.778C1026.27 148.778 1032.19 147.625 1036.8 145.318C1041.42 142.858 1044.95 139.244 1047.42 134.478C1049.88 129.557 1051.57 123.328 1052.49 115.793C1053.41 108.258 1053.87 99.339 1053.87 89.0361V1.15332H1074.63V84.4229ZM2603.9 0C2611.28 0 2618.13 0.768901 2624.43 2.30664C2630.89 3.8444 2636.89 5.99668 2642.42 8.76465C2647.96 11.5326 2653.03 14.8392 2657.65 18.6836L2647.96 35.5225C2646.11 33.3696 2643.65 31.293 2640.58 29.2939C2637.5 27.2949 2634.04 25.527 2630.2 23.9893C2626.35 22.2977 2622.12 20.99 2617.51 20.0674C2613.05 18.991 2608.36 18.4531 2603.44 18.4531C2590.83 18.4531 2581.53 20.8366 2575.53 25.6035C2569.53 30.3706 2566.53 36.9061 2566.53 45.21C2566.53 51.0535 2568.07 55.6667 2571.15 59.0498C2574.22 62.4329 2578.91 65.2007 2585.22 67.3535C2591.68 69.5064 2599.83 71.7364 2609.67 74.043C2621.05 76.5034 2630.89 79.5022 2639.19 83.0391C2647.5 86.5759 2653.88 91.3426 2658.34 97.3398C2662.8 103.183 2665.03 111.026 2665.03 120.868C2665.03 128.711 2663.49 135.554 2660.41 141.397C2657.49 147.087 2653.34 151.854 2647.96 155.698C2642.58 159.389 2636.27 162.157 2629.04 164.002C2621.82 165.693 2613.97 166.54 2605.52 166.54C2597.21 166.54 2589.06 165.693 2581.07 164.002C2573.22 162.157 2565.77 159.543 2558.69 156.16C2551.62 152.777 2545.01 148.548 2538.85 143.474L2548.77 125.942C2551.23 128.557 2554.39 131.171 2558.23 133.785C2562.23 136.245 2566.69 138.552 2571.61 140.705C2576.68 142.858 2582.14 144.627 2587.99 146.011C2593.83 147.241 2599.83 147.855 2605.98 147.855C2617.66 147.855 2626.74 145.78 2633.2 141.628C2639.65 137.322 2642.88 131.094 2642.88 122.944C2642.88 116.793 2641.04 111.872 2637.35 108.182C2633.81 104.491 2628.51 101.415 2621.43 98.9551C2614.36 96.4947 2605.75 94.0337 2595.6 91.5732C2584.53 88.8053 2575.22 85.8074 2567.69 82.5781C2560.15 79.195 2554.46 74.8119 2550.62 69.4297C2546.93 64.0475 2545.08 57.0508 2545.08 48.4395C2545.08 37.9827 2547.62 29.1406 2552.69 21.9131C2557.77 14.6856 2564.77 9.22676 2573.68 5.53613C2582.6 1.84554 2592.68 3.8637e-05 2603.9 0ZM291.628 0C307.467 0 320.538 3.30578 330.841 9.91797C341.144 16.5304 348.91 25.1424 354.139 35.7529L338.223 46.8242C333.456 37.2903 326.92 30.2168 318.616 25.6035C310.312 20.9902 301.162 18.6836 291.167 18.6836C282.863 18.6836 275.328 20.4524 268.562 23.9893C261.796 27.5261 255.952 32.3696 251.031 38.5205C246.264 44.5178 242.573 51.361 239.959 59.0498C237.499 66.7386 236.269 74.7351 236.269 83.0391C236.269 91.8043 237.653 100.109 240.421 107.951C243.343 115.64 247.417 122.482 252.646 128.479C257.874 134.323 263.948 138.937 270.868 142.32C277.788 145.703 285.247 147.395 293.243 147.395C302.623 147.394 311.542 145.011 320 140.244C327.515 136.008 334.665 129.767 341.452 121.524V98.9551H306.16V83.2695H358.982V164.925H341.452V142.678C327.239 158.277 310.631 166.078 291.628 166.078C280.864 166.078 270.791 163.771 261.411 159.158C252.185 154.391 244.111 148.087 237.191 140.244C230.271 132.248 224.889 123.328 221.045 113.486C217.201 103.491 215.278 93.1884 215.278 82.5781C215.278 71.5062 217.201 61.0487 221.045 51.207C224.889 41.2117 230.195 32.3694 236.961 24.6807C243.881 16.992 251.954 10.9951 261.181 6.68945C270.561 2.22998 280.71 4.16182e-05 291.628 0ZM80.624 164.925H59.8643V1.15332H80.624V164.925ZM566.78 1.15332C574.008 1.15332 580.62 2.69116 586.617 5.7666C592.614 8.68833 597.843 12.6862 602.303 17.7607C606.762 22.6816 610.222 28.2948 612.683 34.5996C615.143 40.7505 616.373 47.0552 616.373 53.5137C616.373 61.0487 614.912 68.1997 611.99 74.9658C609.222 81.7319 605.224 87.4986 599.996 92.2656C594.921 97.0327 588.924 100.339 582.004 102.185L621.679 164.925H598.15L560.783 106.105H517.418V164.925H496.658V1.15332H566.78ZM863.468 19.6064H775.123V72.6592H851.934V89.959H775.123V146.472H865.543V164.925H754.363V1.15332H863.468V19.6064ZM1348.61 164.925H1326.46L1307.09 116.946H1238.35L1219.2 164.925H1197.06L1264.18 1.15332H1281.71L1348.61 164.925ZM1715.23 1.15332C1722.92 1.15335 1729.53 3.229 1735.07 7.38086C1740.76 11.379 1745.06 16.6078 1747.99 23.0664C1751.06 29.3712 1752.6 35.9834 1752.6 42.9033C1752.6 50.8997 1750.52 58.4351 1746.37 65.5088C1742.37 72.4286 1736.61 77.5798 1729.07 80.9629C1738.45 83.7309 1745.83 88.8829 1751.22 96.418C1756.75 103.799 1759.52 112.564 1759.52 122.713C1759.52 131.171 1757.37 138.553 1753.06 144.857C1748.76 151.162 1742.91 156.083 1735.53 159.62C1728.3 163.157 1720.31 164.925 1711.54 164.925H1633.81V1.15332H1715.23ZM2025.53 164.925H2003.39L1984.01 116.946H1915.28L1896.13 164.925H1873.99L1941.11 1.15332H1958.64L2025.53 164.925ZM2256.05 19.6064H2199.54V164.925H2178.78V19.6064H2122.27V1.15332H2256.05V19.6064ZM2406.51 164.925H2385.75V1.15332H2406.51V164.925ZM2916.54 19.6064H2860.03V164.925H2839.27V19.6064H2782.75V1.15332H2916.54V19.6064ZM3164.94 164.925H3142.79L3123.42 116.946H3054.68L3035.53 164.925H3013.39L3080.51 1.15332H3098.04L3164.94 164.925ZM1654.57 146.934H1711.54C1716.62 146.934 1721.15 145.626 1725.15 143.012C1729.3 140.398 1732.53 137.014 1734.84 132.862C1737.3 128.557 1738.53 123.943 1738.53 119.022C1738.53 113.948 1737.38 109.258 1735.07 104.952C1732.92 100.646 1729.92 97.1865 1726.07 94.5723C1722.38 91.9581 1718.08 90.6514 1713.16 90.6514H1654.57V146.934ZM1242.5 100.8H1302.47L1272.95 25.1426L1242.5 100.8ZM1919.43 100.8H1979.4L1949.88 25.1426L1919.43 100.8ZM3058.83 100.8H3118.8L3089.28 25.1426L3058.83 100.8ZM517.418 87.6523H567.011C572.7 87.6523 577.622 86.1145 581.773 83.0391C586.079 79.8098 589.386 75.5809 591.692 70.3525C594.153 65.1241 595.383 59.5109 595.383 53.5137C595.383 47.3628 593.998 41.7503 591.23 36.6758C588.463 31.4474 584.849 27.2952 580.39 24.2197C575.93 21.1442 571.009 19.6064 565.627 19.6064H517.418V87.6523ZM1654.57 73.8125H1706.7C1711.62 73.8125 1715.92 72.5825 1719.62 70.1221C1723.46 67.6617 1726.46 64.355 1728.61 60.2031C1730.92 56.0512 1732.07 51.5146 1732.07 46.5938C1732.07 41.3655 1730.99 36.752 1728.84 32.7539C1726.84 28.602 1724 25.2963 1720.31 22.8359C1716.77 20.3756 1712.7 19.1446 1708.08 19.1445H1654.57V73.8125Z" fill="#1D2023"/>
</svg>
